HIERARCHY
ROOT Model
{
	OFFSET 0 0 0
	CHANNELS 6 Xposition Yposition Zposition Zrotation Xrotation Yrotation
	JOINT Model1
	{
		OFFSET 0 -2.25479 2.99384
		CHANNELS 3 Zrotation Xrotation Yrotation
		JOINT Model2
		{
			OFFSET 12.111 0 0
			CHANNELS 3 Zrotation Xrotation Yrotation
			JOINT Model3
			{
				OFFSET 11.5502 0 0
				CHANNELS 3 Zrotation Xrotation Yrotation
				JOINT Model4
				{
					OFFSET 11.781 0 0
					CHANNELS 3 Zrotation Xrotation Yrotation
					JOINT Model5
					{
						OFFSET 20.0601 0 0
						CHANNELS 3 Zrotation Xrotation Yrotation
						JOINT Model6
						{
							OFFSET 11.1962 0 0
							CHANNELS 3 Zrotation Xrotation Yrotation
							End Site
							{
								OFFSET 0 0 0
							}
						}
					}
					JOINT Model7
					{
						OFFSET 10.8223 0.417534 3.51114
						CHANNELS 3 Zrotation Xrotation Yrotation
						JOINT Model8
						{
							OFFSET -6.07943 0 0
							CHANNELS 3 Zrotation Xrotation Yrotation
							JOINT Model9
							{
								OFFSET -0.277416 10.39 -0.051239
								CHANNELS 3 Zrotation Xrotation Yrotation
								JOINT Model10
								{
									OFFSET -3.4391 -0.282043 1.86679
									CHANNELS 3 Zrotation Xrotation Yrotation
									JOINT Model11
									{
										OFFSET 13.0269 0 0
										CHANNELS 3 Zrotation Xrotation Yrotation
										JOINT Model12
										{
											OFFSET 10.8866 0 0
											CHANNELS 3 Zrotation Xrotation Yrotation
											JOINT Model13
											{
												OFFSET 16.7317 0 0
												CHANNELS 3 Zrotation Xrotation Yrotation
												JOINT Model14
												{
													OFFSET 11.8292 0 0
													CHANNELS 3 Zrotation Xrotation Yrotation
													JOINT Model15
													{
														OFFSET 4.82751 -3.73566 -0.836517
														CHANNELS 3 Zrotation Xrotation Yrotation
														JOINT Model16
														{
															OFFSET 3.75311 -0.0582886 -0.0186462
															CHANNELS 3 Zrotation Xrotation Yrotation
															JOINT Model17
															{
																OFFSET 2.88688 0.0192337 0.014801
																CHANNELS 3 Zrotation Xrotation Yrotation
																End Site
																{
																	OFFSET 0 0 0
																}
															}
														}
													}
													JOINT Model18
													{
														OFFSET 9.72197 -3.06458 0.23877
														CHANNELS 3 Zrotation Xrotation Yrotation
														JOINT Model19
														{
															OFFSET 4.61131 0 0
															CHANNELS 3 Zrotation Xrotation Yrotation
															JOINT Model20
															{
																OFFSET 2.8969 -7.62939e-006 0
																CHANNELS 3 Zrotation Xrotation Yrotation
																End Site
																{
																	OFFSET 0 0 0
																}
															}
														}
													}
													JOINT Model21
													{
														OFFSET 9.54431 -0.745064 0.588928
														CHANNELS 3 Zrotation Xrotation Yrotation
														JOINT Model22
														{
															OFFSET 5.33978 0 0
															CHANNELS 3 Zrotation Xrotation Yrotation
															JOINT Model23
															{
																OFFSET 3.03619 7.62939e-006 0
																CHANNELS 3 Zrotation Xrotation Yrotation
																End Site
																{
																	OFFSET 0 0 0
																}
															}
														}
													}
													JOINT Model24
													{
														OFFSET 9.47759 1.51286 0.485107
														CHANNELS 3 Zrotation Xrotation Yrotation
														JOINT Model25
														{
															OFFSET 4.96136 7.62939e-006 0
															CHANNELS 3 Zrotation Xrotation Yrotation
															JOINT Model26
															{
																OFFSET 2.51966 0 0
																CHANNELS 3 Zrotation Xrotation Yrotation
																End Site
																{
																	OFFSET 0 0 0
																}
															}
														}
													}
													JOINT Model27
													{
														OFFSET 9.34247 3.34117 -0.239288
														CHANNELS 3 Zrotation Xrotation Yrotation
														JOINT Model28
														{
															OFFSET 3.2826 2.28882e-005 0
															CHANNELS 3 Zrotation Xrotation Yrotation
															JOINT Model29
															{
																OFFSET 2.1292 0 0
																CHANNELS 3 Zrotation Xrotation Yrotation
																End Site
																{
																	OFFSET 0 0 0
																}
															}
														}
													}
												}
											}
										}
									}
								}
							}
						}
					}
					JOINT Model30
					{
						OFFSET 10.8223 0.4179 -3.51108
						CHANNELS 3 Zrotation Xrotation Yrotation
						JOINT Model31
						{
							OFFSET 6.07943 0 0
							CHANNELS 3 Zrotation Xrotation Yrotation
							JOINT Model32
							{
								OFFSET 0.277416 -10.39 0.051239
								CHANNELS 3 Zrotation Xrotation Yrotation
								JOINT Model33
								{
									OFFSET 3.4391 0.282043 -1.86679
									CHANNELS 3 Zrotation Xrotation Yrotation
									JOINT Model34
									{
										OFFSET -13.0269 0 0
										CHANNELS 3 Zrotation Xrotation Yrotation
										JOINT Model35
										{
											OFFSET -10.8866 0 0
											CHANNELS 3 Zrotation Xrotation Yrotation
											JOINT Model36
											{
												OFFSET -16.7317 0 0
												CHANNELS 3 Zrotation Xrotation Yrotation
												JOINT Model37
												{
													OFFSET -11.8292 0 0
													CHANNELS 3 Zrotation Xrotation Yrotation
													JOINT Model38
													{
														OFFSET -4.82751 3.73566 0.836517
														CHANNELS 3 Zrotation Xrotation Yrotation
														JOINT Model39
														{
															OFFSET -3.75311 0.0582886 0.0186462
															CHANNELS 3 Zrotation Xrotation Yrotation
															JOINT Model40
															{
																OFFSET -2.88688 -0.0192337 -0.014801
																CHANNELS 3 Zrotation Xrotation Yrotation
																End Site
																{
																	OFFSET 0 0 0
																}
															}
														}
													}
													JOINT Model41
													{
														OFFSET -9.72197 3.06459 -0.23877
														CHANNELS 3 Zrotation Xrotation Yrotation
														JOINT Model42
														{
															OFFSET -4.6113 0 0
															CHANNELS 3 Zrotation Xrotation Yrotation
															JOINT Model43
															{
																OFFSET -2.8969 0 0
																CHANNELS 3 Zrotation Xrotation Yrotation
																End Site
																{
																	OFFSET 0 0 0
																}
															}
														}
													}
													JOINT Model44
													{
														OFFSET -9.5443 0.745064 -0.588928
														CHANNELS 3 Zrotation Xrotation Yrotation
														JOINT Model45
														{
															OFFSET -5.33978 0 0
															CHANNELS 3 Zrotation Xrotation Yrotation
															JOINT Model46
															{
																OFFSET -3.03619 -1.52588e-005 0
																CHANNELS 3 Zrotation Xrotation Yrotation
																End Site
																{
																	OFFSET 0 0 0
																}
															}
														}
													}
													JOINT Model47
													{
														OFFSET -9.47759 -1.51286 -0.485107
														CHANNELS 3 Zrotation Xrotation Yrotation
														JOINT Model48
														{
															OFFSET -4.96136 -1.52588e-005 0
															CHANNELS 3 Zrotation Xrotation Yrotation
															JOINT Model49
															{
																OFFSET -2.51966 0 0
																CHANNELS 3 Zrotation Xrotation Yrotation
																End Site
																{
																	OFFSET 0 0 0
																}
															}
														}
													}
													JOINT Model50
													{
														OFFSET -9.34246 -3.34118 0.239288
														CHANNELS 3 Zrotation Xrotation Yrotation
														JOINT Model51
														{
															OFFSET -3.2826 -2.28882e-005 0
															CHANNELS 3 Zrotation Xrotation Yrotation
															JOINT Model52
															{
																OFFSET -2.1292 0 0
																CHANNELS 3 Zrotation Xrotation Yrotation
																End Site
																{
																	OFFSET 0 0 0
																}
															}
														}
													}
												}
											}
										}
									}
								}
							}
						}
					}
				}
			}
		}
	}
	JOINT Model53
	{
		OFFSET 4.38026 -2.14632 -1.11517
		CHANNELS 3 Zrotation Xrotation Yrotation
		JOINT Model54
		{
			OFFSET 0 0 4.94998
			CHANNELS 3 Zrotation Xrotation Yrotation
			JOINT Model55
			{
				OFFSET 18.5642 0 0
				CHANNELS 3 Zrotation Xrotation Yrotation
				JOINT Model56
				{
					OFFSET 21.2884 0 0
					CHANNELS 3 Zrotation Xrotation Yrotation
					JOINT Model57
					{
						OFFSET 30.261 0 0
						CHANNELS 3 Zrotation Xrotation Yrotation
						JOINT Model58
						{
							OFFSET 11.7259 0 0
							CHANNELS 3 Zrotation Xrotation Yrotation
							JOINT Model59
							{
								OFFSET 10.682 0 0
								CHANNELS 3 Zrotation Xrotation Yrotation
								End Site
								{
									OFFSET 0 0 0
								}
							}
						}
					}
				}
			}
		}
	}
	JOINT Model60
	{
		OFFSET -4.38026 -2.14632 -1.11517
		CHANNELS 3 Zrotation Xrotation Yrotation
		JOINT Model61
		{
			OFFSET 0 0 -4.94998
			CHANNELS 3 Zrotation Xrotation Yrotation
			JOINT Model62
			{
				OFFSET -18.5642 0 0
				CHANNELS 3 Zrotation Xrotation Yrotation
				JOINT Model63
				{
					OFFSET -21.2884 0 0
					CHANNELS 3 Zrotation Xrotation Yrotation
					JOINT Model64
					{
						OFFSET -30.261 0 0
						CHANNELS 3 Zrotation Xrotation Yrotation
						JOINT Model65
						{
							OFFSET -11.7259 0 0
							CHANNELS 3 Zrotation Xrotation Yrotation
							JOINT Model66
							{
								OFFSET -10.682 0 0
								CHANNELS 3 Zrotation Xrotation Yrotation
								End Site
								{
									OFFSET 0 0 0
								}
							}
						}
					}
				}
			}
		}
	}
}
MOTION
Frames: 5
Frame Time: 0.033333
0.91083 138.937 -317.394 136.883 -3.64612 84.2072 -180 4.29621e-031 -90 3.39444 -0.629856 -2.25471 6.76218 -1.39204 -4.46866 6.76218 -1.39161 -4.46871 109.372 -2.46423 31.3567 -133.08 -5.50051 -16.7188 120.092 75.5343 58.4939 -38.0527 -16.3058 -4.25875 -167.277 84.4999 48.8109 177.159 10.201 -20.8377 -1.93963e-005 46.386 4.45561e-005 -68.3398 2.17612 0.566371 4.32214e-007 2.62008 3.75903e-007 -0.345804 0.0549574 -18.0599 -72.0648 39.0385 39.3397 33.3638 2.10362 14.835 0.588947 0.308273 6.35287 -99.6409 81.413 100.35 -0.018141 2.78141e-005 -0.117315 -0.124139 0.00241117 -0.799296 -79.8382 79.5773 80.5374 -0.000225808 -0.000220886 2.21495e-005 -0.000956269 0.000122945 -2.73816e-005 -66.7416 80.4058 67.2171 -0.000437166 1.59808e-005 -2.73632e-005 -0.000136649 -0.000109243 -5.46992e-005 -6.42159 81.2158 8.01779 -0.000218602 1.69323e-005 0.000212107 0.000901535 -0.000184769 -0.000218611 -59.9282 75.5373 58.5147 -13.8659 -5.70978 0.231767 -167.277 84.4999 48.8109 -150.643 -11.7004 7.46139 4.77693e-006 3.67172 3.00789e-005 -134.975 22.1069 0.466458 -1.09705e-005 33.7249 5.43508e-006 -54.1969 -22.3235 42.1739 -72.0648 39.0385 39.3397 33.3638 2.10361 14.835 0.588946 0.308273 6.35287 -99.6409 81.413 100.35 -0.0181409 3.00777e-005 -0.117315 -0.124139 0.00241113 -0.799296 -79.8382 79.5773 80.5374 -0.000260621 -0.000218567 2.35798e-005 -0.000956192 0.000122995 -2.7308e-005 -66.7416 80.4058 67.2171 -0.000437107 1.4881e-005 -2.73123e-005 -0.000136569 -0.000109283 -5.463e-005 -6.42159 81.2158 8.01779 -0.000218539 1.95792e-005 0.000212303 0.000901619 -0.000191245 -0.000218558 0.000811311 0.56661 89.91 -38.0517 -7.54185 -19.3735 1.64204e-005 -5.39734 -8.64978e-006 74.7008 -8.33065 -0.0177443 -8.63933e-007 -12.6141 -3.18553e-006 -42.5052 13.6518 -11.8855 -35.4947 -3.13628e-006 -1.51257e-005 -180 -0.566579 -90.09 -66.9407 -28.149 -17.0885 -1.51709e-006 -43.3697 -9.83184e-008 105.774 -5.62557 -0.00144402 1.54597e-007 -8.55611 -5.7864e-007 -32.0445 -2.06366 2.79241 -35.4947 1.15596e-005 -1.85062e-005 
0.91881 138.906 -317.424 137.741 -3.27356 84.1764 -180 4.29621e-031 -90 3.52367 -0.705002 -2.23033 7.01816 -1.54564 -4.4137 7.01816 -1.54521 -4.41375 108.112 -1.32792 32.2481 -132.598 -4.17068 -16.586 120.092 75.5343 58.4939 -37.0735 -16.071 -4.0998 -167.277 84.4999 48.8109 177.542 10.2325 -19.8307 -1.92116e-005 46.2216 4.44225e-005 -68.0119 2.04287 0.56503 4.33537e-007 2.41853 3.75845e-007 -0.0382637 0.00590477 -17.5394 -72.0648 39.0385 39.3397 33.3638 2.10362 14.835 0.588947 0.308273 6.35287 -99.6409 81.413 100.35 -0.018141 2.78141e-005 -0.117315 -0.124139 0.00241117 -0.799296 -79.8382 79.5773 80.5374 -0.000225808 -0.000220886 2.21495e-005 -0.000956269 0.000122945 -2.73816e-005 -66.7416 80.4058 67.2171 -0.000437166 1.59808e-005 -2.73632e-005 -0.000136649 -0.000109243 -5.46992e-005 -6.42159 81.2158 8.01779 -0.000218602 1.69323e-005 0.000212107 0.000901535 -0.000184769 -0.000218611 -59.9282 75.5373 58.5147 -12.8437 -5.23195 0.311893 -167.277 84.4999 48.8109 -152.43 -12.1495 7.18963 5.02589e-006 3.19822 3.0064e-005 -136.183 20.2396 0.450704 -1.06644e-005 30.957 5.27131e-006 -49.7498 -22.2081 45.8862 -72.0648 39.0385 39.3397 33.3638 2.10361 14.835 0.588946 0.308273 6.35287 -99.6409 81.413 100.35 -0.0181409 3.00777e-005 -0.117315 -0.124139 0.00241113 -0.799296 -79.8382 79.5773 80.5374 -0.000260621 -0.000218567 2.35798e-005 -0.000956192 0.000122995 -2.7308e-005 -66.7416 80.4058 67.2171 -0.000437107 1.4881e-005 -2.73123e-005 -0.000136569 -0.000109283 -5.463e-005 -6.42159 81.2158 8.01779 -0.000218539 1.95792e-005 0.000212303 0.000901619 -0.000191245 -0.000218558 0.000811311 0.56661 89.91 -37.2926 -7.4926 -19.1637 1.64522e-005 -5.18784 -8.64685e-006 74.7273 -8.30562 -0.0177572 -8.61795e-007 -12.5765 -3.18507e-006 -42.7456 12.8384 -11.1301 -35.4947 -3.16184e-006 -1.52261e-005 -180 -0.566579 -90.09 -66.0703 -28.2909 -17.2913 -1.51722e-006 -43.4226 -9.84043e-008 105.7 -5.59444 -0.00138575 1.55073e-007 -8.50947 -5.78569e-007 -32.0488 -2.09207 2.82167 -35.4947 1.16545e-005 -1.86545e-005 
0.91362 138.907 -317.522 138.264 -3.22823 84.0916 -180 4.29621e-031 -90 3.61102 -0.713119 -2.20463 7.19289 -1.56358 -4.36058 7.19289 -1.56314 -4.36063 106.988 -0.304808 32.954 -132.346 -3.01287 -16.3554 120.092 75.5343 58.4939 -36.2537 -15.8171 -3.92864 -167.277 84.4999 48.8109 177.861 10.3248 -18.9546 -1.91414e-005 46.1589 4.43718e-005 -67.9063 1.98246 0.564589 4.34135e-007 2.32739 3.7582e-007 0.423047 -0.0651944 -17.5219 -72.0648 39.0385 39.3397 33.3638 2.10362 14.835 0.588947 0.308273 6.35287 -99.6409 81.413 100.35 -0.018141 2.78141e-005 -0.117315 -0.124139 0.00241117 -0.799296 -79.8382 79.5773 80.5374 -0.000225808 -0.000220886 2.21495e-005 -0.000956269 0.000122945 -2.73816e-005 -66.7416 80.4058 67.2171 -0.000437166 1.59808e-005 -2.73632e-005 -0.000136649 -0.000109243 -5.46992e-005 -6.42159 81.2158 8.01779 -0.000218602 1.69323e-005 0.000212107 0.000901535 -0.000184769 -0.000218611 -59.9282 75.5373 58.5147 -11.8949 -4.97459 0.297327 -167.277 84.4999 48.8109 -155.286 -12.9445 6.78517 5.51427e-006 2.26816 3.00407e-005 -136.031 19.4502 0.44965 -1.05385e-005 29.7689 5.20765e-006 -47.4523 -21.9296 47.5769 -72.0648 39.0385 39.3397 33.3638 2.10361 14.835 0.588946 0.308273 6.35287 -99.6409 81.413 100.35 -0.0181409 3.00777e-005 -0.117315 -0.124139 0.00241113 -0.799296 -79.8382 79.5773 80.5374 -0.000260621 -0.000218567 2.35798e-005 -0.000956192 0.000122995 -2.7308e-005 -66.7416 80.4058 67.2171 -0.000437107 1.4881e-005 -2.73123e-005 -0.000136569 -0.000109283 -5.463e-005 -6.42159 81.2158 8.01779 -0.000218539 1.95792e-005 0.000212303 0.000901619 -0.000191245 -0.000218558 0.000811311 0.56661 89.91 -36.7478 -7.74089 -19.3288 1.64252e-005 -5.36572 -8.64933e-006 74.7131 -8.11408 -0.0177623 -8.45449e-007 -12.2892 -3.18155e-006 -43.0463 12.4855 -10.7761 -35.4947 -3.18714e-006 -1.53255e-005 -180 -0.566579 -90.09 -65.4745 -28.3201 -17.2977 -1.51704e-006 -43.3478 -9.8283e-008 105.699 -5.57781 -0.00132804 1.55328e-007 -8.48452 -5.78532e-007 -32.0156 -2.09533 2.82822 -35.4947 1.17486e-005 -1.88015e-005 
0.89333 138.932 -317.681 138.238 -3.48453 83.9361 -180 4.29621e-031 -90 3.61171 -0.660488 -2.16816 7.19667 -1.4562 -4.29092 7.19667 -1.45577 -4.29097 106.184 0.573753 33.4789 -132.624 -2.11775 -16.0202 120.092 75.5343 58.4939 -35.954 -15.6727 -3.82908 -167.277 84.4999 48.8109 178.02 10.4124 -18.525 -1.91735e-005 46.1876 4.4395e-005 -68.0066 2.01539 0.565 4.33808e-007 2.37728 3.75834e-007 0.881241 -0.138318 -17.8405 -72.0648 39.0385 39.3397 33.3638 2.10362 14.835 0.588947 0.308273 6.35287 -99.6409 81.413 100.35 -0.018141 2.78141e-005 -0.117315 -0.124139 0.00241117 -0.799296 -79.8382 79.5773 80.5374 -0.000225808 -0.000220886 2.21495e-005 -0.000956269 0.000122945 -2.73816e-005 -66.7416 80.4058 67.2171 -0.000437166 1.59808e-005 -2.73632e-005 -0.000136649 -0.000109243 -5.46992e-005 -6.42159 81.2158 8.01779 -0.000218602 1.69323e-005 0.000212107 0.000901535 -0.000184769 -0.000218611 -59.9282 75.5373 58.5147 -11.141 -4.64447 0.336098 -167.277 84.4999 48.8109 -158.53 -14.0985 6.27736 6.26916e-006 0.828376 3.00203e-005 -134.994 19.1903 0.45724 -1.04949e-005 29.3511 5.18616e-006 -45.7903 -21.9925 49.4152 -72.0648 39.0385 39.3397 33.3638 2.10361 14.835 0.588946 0.308273 6.35287 -99.6409 81.413 100.35 -0.0181409 3.00777e-005 -0.117315 -0.124139 0.00241113 -0.799296 -79.8382 79.5773 80.5374 -0.000260621 -0.000218567 2.35798e-005 -0.000956192 0.000122995 -2.7308e-005 -66.7416 80.4058 67.2171 -0.000437107 1.4881e-005 -2.73123e-005 -0.000136569 -0.000109283 -5.463e-005 -6.42159 81.2158 8.01779 -0.000218539 1.95792e-005 0.000212303 0.000901619 -0.000191245 -0.000218558 0.000811311 0.56661 89.91 -36.5912 -8.13091 -19.6274 1.63569e-005 -5.81573 -8.65598e-006 74.6476 -7.87629 -0.0177654 -8.25203e-007 -11.9325 -3.1773e-006 -43.4444 12.4268 -10.6679 -35.4947 -3.21219e-006 -1.54239e-005 -180 -0.566579 -90.09 -65.3599 -28.2257 -17.0736 -1.51663e-006 -43.1715 -9.79987e-008 105.734 -5.58219 -0.00127092 1.55261e-007 -8.49107 -5.78542e-007 -31.9207 -2.0683 2.80887 -35.4947 1.18418e-005 -1.8947e-005 
0.85617 138.954 -317.853 137.708 -3.75723 83.7568 -180 4.29621e-031 -90 3.5398 -0.600907 -2.11843 7.05564 -1.33148 -4.19613 7.05563 -1.33104 -4.19618 105.554 1.68652 34.1337 -133.288 -1.08291 -15.6163 120.092 75.5343 58.4939 -36.0459 -15.6625 -3.81876 -167.277 84.4999 48.8109 177.956 10.4846 -18.3579 -1.91951e-005 46.2069 4.44106e-005 -68.027 2.11479 0.565113 4.32828e-007 2.52649 3.75876e-007 1.08778 -0.1734 -18.114 -72.0648 39.0385 39.3397 33.3638 2.10362 14.835 0.588947 0.308273 6.35287 -99.6409 81.413 100.35 -0.018141 2.78141e-005 -0.117315 -0.124139 0.00241117 -0.799296 -79.8382 79.5773 80.5374 -0.000225808 -0.000220886 2.21495e-005 -0.000956269 0.000122945 -2.73816e-005 -66.7416 80.4058 67.2171 -0.000437166 1.59808e-005 -2.73632e-005 -0.000136649 -0.000109243 -5.46992e-005 -6.42159 81.2158 8.01779 -0.000218602 1.69323e-005 0.000212107 0.000901535 -0.000184769 -0.000218611 -59.9282 75.5373 58.5147 -10.7713 -4.18856 0.476991 -167.277 84.4999 48.8109 -162.057 -15.529 5.52128 7.1825e-006 -0.914845 3.0021e-005 -133.303 19.2107 0.470556 -1.04934e-005 29.3361 5.1854e-006 -43.9705 -22.3492 52.1453 -72.0648 39.0385 39.3397 33.3638 2.10361 14.835 0.588946 0.308273 6.35287 -99.6409 81.413 100.35 -0.0181409 3.00777e-005 -0.117315 -0.124139 0.00241113 -0.799296 -79.8382 79.5773 80.5374 -0.000260621 -0.000218567 2.35798e-005 -0.000956192 0.000122995 -2.7308e-005 -66.7416 80.4058 67.2171 -0.000437107 1.4881e-005 -2.73123e-005 -0.000136569 -0.000109283 -5.463e-005 -6.42159 81.2158 8.01779 -0.000218539 1.95792e-005 0.000212303 0.000901619 -0.000191245 -0.000218558 0.000811311 0.56661 89.91 -36.9038 -8.44028 -19.8572 1.62843e-005 -6.29369 -8.66365e-006 74.5963 -7.73021 -0.0177723 -8.12791e-007 -11.7133 -3.17476e-006 -43.8637 12.2794 -10.4812 -35.4947 -3.23698e-006 -1.55213e-005 -180 -0.566579 -90.09 -65.8052 -28.0676 -16.8204 -1.51624e-006 -43.008 -9.77375e-008 105.791 -5.58279 -0.0012143 1.55253e-007 -8.49193 -5.78543e-007 -31.8087 -2.02666 2.77572 -35.4947 1.19341e-005 -1.90912e-005 
